<svg width="246" height="197" viewBox="0 0 246 197" fill="none" xmlns="http://www.w3.org/2000/svg">
<g filter="url(#filter0_d)">
<rect x="6" y="6.00308" width="230" height="180" rx="10" fill="#141414"/>
<rect x="6.5" y="6.50308" width="229" height="179" rx="9.5" stroke="black" stroke-opacity="0.5"/>
</g>
<rect x="21" y="21.0031" width="200" height="150" fill="#333333"/>
<rect x="21" y="21.0031" width="200" height="10" fill="#3C3C3C"/>
<rect x="21" y="41.0031" width="200" height="10" fill="#3C3C3C"/>
<rect x="21" y="61.0031" width="200" height="10" fill="#3C3C3C"/>
<rect x="21" y="81.0031" width="200" height="10" fill="#3C3C3C"/>
<rect x="21" y="101.003" width="200" height="10" fill="#3C3C3C"/>
<rect x="21" y="121.003" width="200" height="10" fill="#3C3C3C"/>
<rect x="21" y="141.003" width="200" height="10" fill="#3C3C3C"/>
<rect x="21" y="161.003" width="200" height="10" fill="#3C3C3C"/>
<path d="M47.92 82.9951C42.784 82.6591 38.584 80.7391 35.32 77.2351L38.416 72.9151C38.56 73.0111 38.656 73.2751 38.704 73.7071C38.752 74.0911 38.824 74.3311 38.92 74.4271C41.272 76.9711 44.272 78.4351 47.92 78.8191V62.9791C44.08 61.6831 41.248 60.1711 39.424 58.4431C37.6 56.6671 36.688 54.4831 36.688 51.8911C36.688 49.2511 37.72 46.9711 39.784 45.0511C41.896 43.1311 44.608 41.9311 47.92 41.4511V37.1311H52.528C52.576 37.1791 52.6 37.2511 52.6 37.3471C52.6 37.4431 52.528 37.6351 52.384 37.9231C52.24 38.1631 52.144 38.4031 52.096 38.6431V41.3791C56.56 41.8591 60.136 43.7071 62.824 46.9231L59.728 50.8111C59.536 50.7151 59.392 50.4751 59.296 50.0911C59.2 49.7071 59.08 49.4431 58.936 49.2991C57.304 47.3791 55.024 46.1551 52.096 45.6271V59.5231C56.416 60.9151 59.488 62.4511 61.312 64.1311C63.184 65.8111 64.12 68.0911 64.12 70.9711C64.12 72.7951 63.616 74.5711 62.608 76.2991C61.648 77.9791 60.256 79.4191 58.432 80.6191C56.608 81.8191 54.496 82.5631 52.096 82.8511V87.3871H47.92V82.9951ZM47.92 45.5551C45.856 45.7951 44.248 46.4431 43.096 47.4991C41.992 48.5551 41.44 49.8271 41.44 51.3151C41.44 54.0511 43.6 56.2831 47.92 58.0111V45.5551ZM52.096 78.6751C54.352 78.2431 56.128 77.3311 57.424 75.9391C58.768 74.5471 59.44 72.9871 59.44 71.2591C59.44 69.5791 58.864 68.2351 57.712 67.2271C56.608 66.1711 54.736 65.2111 52.096 64.3471V78.6751ZM69.52 85.3711H100.552V89.7631H69.52V85.3711Z" fill="#00FF00"/>
<defs>
<filter id="filter0_d" x="0" y="0.00308228" width="246" height="196" filterUnits="userSpaceOnUse" color-interpolation-filters="sRGB">
<feFlood flood-opacity="0" result="BackgroundImageFix"/>
<feColorMatrix in="SourceAlpha" type="matrix" values="0 0 0 0 0 0 0 0 0 0 0 0 0 0 0 0 0 0 127 0"/>
<feOffset dx="2" dy="2"/>
<feGaussianBlur stdDeviation="4"/>
<feColorMatrix type="matrix" values="0 0 0 0 0 0 0 0 0 0 0 0 0 0 0 0 0 0 0.5 0"/>
<feBlend mode="normal" in2="BackgroundImageFix" result="effect1_dropShadow"/>
<feBlend mode="normal" in="SourceGraphic" in2="effect1_dropShadow" result="shape"/>
</filter>
</defs>
</svg>
