<svg xmlns="http://www.w3.org/2000/svg" viewBox="0 0 968.86 180"><defs><style>.cls-1{fill:#999;}.cls-2{fill:#00a387;}.cls-3{fill:#f9b253;}.cls-4{fill:#fff;}.cls-5{fill:#fa8f50;}.cls-6{fill:#02997c;}.cls-7{fill:#028e73;}.cls-8{fill:#353535;}.cls-9{fill:#707070;}.cls-10{fill:#a1110d;}.cls-11{fill:#dd8c2c;}.cls-12{fill:#e25e24;}.cls-13{fill:#232323;}.cls-14{fill:#870606;}</style></defs><title>full-logo</title><g id="Layer_2" data-name="Layer 2"><g id="Layer_1-2" data-name="Layer 1"><circle class="cls-1" cx="34.44" cy="138.95" r="4.62"/><path class="cls-2" d="M.89,76.69A89.87,89.87,0,1,0,179.73,89.32a90.71,90.71,0,0,0-.89-12.63Z"/><path class="cls-3" d="M137.05,140.73C113.67,140.07,95.36,116,96.1,87H84.3c.4,28.68-17.79,52.29-41,52.93-21,.59-38.9-17.81-43-42.53a89.87,89.87,0,0,0,178.08,8.18C172.23,126.49,155.86,141.25,137.05,140.73Z"/><path class="cls-4" d="M43.33,140c14.06-.39,26.27-9.22,33.63-22.51a9.34,9.34,0,0,0-14.44,5.26,14.92,14.92,0,0,0-23.58,9.93,4.94,4.94,0,0,0-5,.36,8.47,8.47,0,0,0-8.3-6.73,9.81,9.81,0,0,0-1.09.07,10.53,10.53,0,0,0-14.84-5.19C17.8,133,29.94,140.33,43.33,140Z"/><path class="cls-1" d="M137.05,140.73a34.93,34.93,0,0,0,8.45-.81l.16-.23.13.17c9.67-2.22,18.26-8.51,24.54-17.41a10.53,10.53,0,0,0-16.69,3.88,9.81,9.81,0,0,0-1.09-.07,8.48,8.48,0,0,0-8.3,6.73,4.94,4.94,0,0,0-5-.36,14.92,14.92,0,0,0-23.58-9.93,9.32,9.32,0,0,0-13.06-6.06C109.83,130.8,122.45,140.32,137.05,140.73Z"/><path class="cls-5" d="M121.2,169.64c-16-17.11-27.76-44.68-27.76-74.46,0-3.61-.3-6.3,0-9.79l-4.9-.55c0,.54-.54,1.64-.54,2.18,0,35.25-15.36,65.33-36.57,81.09-1,.76-2.07.87-3.13,1.56,12.23,6.2,26,10.33,40.63,10.33a87.65,87.65,0,0,0,35.5-7.07C123.14,171.74,122.42,171,121.2,169.64Z"/><path class="cls-6" d="M1,76.69h177.8a89.42,89.42,0,0,0-19.16-43.5H20.13A89.53,89.53,0,0,0,1,76.69Z"/><path class="cls-7" d="M20.13,33.19H159.6a89.85,89.85,0,0,0-139.47,0Z"/><path class="cls-8" d="M96.34,89a.07.07,0,0,0,0,0c3.26-6.06,5.44-16.94,5.45-29.36a94.08,94.08,0,0,0-1.24-15.73.08.08,0,0,0-.09-.08l-20.05,0a.1.1,0,0,0-.09.07,95.07,95.07,0,0,0-1.28,15.74c0,12.43,2.15,23.32,5.4,29.38a.07.07,0,0,0,.05,0A14.62,14.62,0,0,0,96.34,89Z"/><path class="cls-9" d="M101.36,61.78,114.27,82.6a6.71,6.71,0,0,1,1,3.49l0,23.4a1.14,1.14,0,0,1-2.11.43h0L98.65,84.34a6.65,6.65,0,0,1-.35-5.83l4.59-11C103.22,66.71,100.91,61,101.36,61.78Z"/><path class="cls-8" d="M78.75,64.24,67.07,83.09a6.66,6.66,0,0,0-1,3.48l0,23.39a1.14,1.14,0,0,0,2.11.44h0L82.69,84.86A6.65,6.65,0,0,0,83.05,79L78.48,68C78.15,67.22,79.21,63.5,78.75,64.24Z"/><path class="cls-10" d="M98.07,83.85a.1.1,0,0,0,.06,0C102.22,77,105,64.69,105,50.67a96.38,96.38,0,0,0-1.56-17.76.12.12,0,0,0-.12-.09l-25.13,0a.12.12,0,0,0-.12.09,96.23,96.23,0,0,0-1.6,17.76c0,14,2.7,26.32,6.78,33.16a.1.1,0,0,0,.06,0A20.27,20.27,0,0,0,98.07,83.85Z"/><path class="cls-8" d="M91.21,9.55a1,1,0,0,0-1.4,0C87.64,11.8,81,19.54,78,33.12c0,0,13,5.3,25.41,0C100.14,19.14,93.41,11.68,91.21,9.55Z"/><circle class="cls-4" cx="34.71" cy="54.94" r="1.09"/><circle class="cls-4" cx="135.85" cy="88.65" r="1.09"/><circle class="cls-4" cx="153.25" cy="98.44" r="0.54"/><circle class="cls-4" cx="136.94" cy="45.69" r="1.09"/><circle class="cls-4" cx="24.38" cy="62.01" r="0.54"/><circle class="cls-4" cx="18.94" cy="100.07" r="0.54"/><circle class="cls-4" cx="51.57" cy="94.63" r="0.54"/><circle class="cls-4" cx="67.88" cy="18.51" r="0.54"/><circle class="cls-4" cx="46.13" cy="18.51" r="0.54"/><circle class="cls-4" cx="122.25" cy="56.57" r="0.54"/><circle class="cls-4" cx="46.13" cy="89.19" r="0.54"/><circle class="cls-4" cx="127.69" cy="18.51" r="0.54"/><circle class="cls-4" cx="161.95" cy="65.81" r="0.54"/><path class="cls-4" d="M137.05,140.73a34.93,34.93,0,0,0,8.45-.81l.16-.23.13.17c9.67-2.22,18.26-8.51,24.54-17.41a10.53,10.53,0,0,0-16.69,3.88,9.81,9.81,0,0,0-1.09-.07,8.48,8.48,0,0,0-8.3,6.73,4.94,4.94,0,0,0-5-.36,14.92,14.92,0,0,0-23.58-9.93,9.32,9.32,0,0,0-13.06-6.06C109.83,130.8,122.45,140.32,137.05,140.73Z"/><path class="cls-11" d="M137.05,140.73C113.67,140.07,95.36,116,96.1,87H90.72V179.9a89.88,89.88,0,0,0,87.66-74.3C172.23,126.49,155.86,141.25,137.05,140.73Z"/><path class="cls-12" d="M90.72,85.09V180a87,87,0,0,0,33.71-7c-1.29-1.19-2-2-3.23-3.29-16-17.11-27.76-44.68-27.76-74.46,0-3.61-.3-6.3,0-9.79Z"/><path class="cls-13" d="M100.6,43.82a.08.08,0,0,0-.09-.08H90.72V90.19A14.62,14.62,0,0,0,96.34,89a.07.07,0,0,0,0,0c3.26-6.06,5.44-16.94,5.45-29.36A94.08,94.08,0,0,0,100.6,43.82Z"/><path class="cls-13" d="M101.36,61.78,114.27,82.6a6.71,6.71,0,0,1,1,3.49l0,23.4a1.14,1.14,0,0,1-2.11.43h0L98.65,84.34a6.65,6.65,0,0,1-.35-5.83l4.59-11C103.22,66.71,100.91,61,101.36,61.78Z"/><path class="cls-14" d="M103.41,32.91a.12.12,0,0,0-.12-.09H90.72V85.25a20.16,20.16,0,0,0,7.35-1.4.1.1,0,0,0,.06,0C102.22,77,105,64.69,105,50.67A96.38,96.38,0,0,0,103.41,32.91Z"/><path class="cls-13" d="M91.21,9.55a.91.91,0,0,0-.49-.26V35.48a31.27,31.27,0,0,0,12.71-2.33C100.14,19.14,93.41,11.68,91.21,9.55Z"/><circle class="cls-4" cx="90.37" cy="46.98" r="2.92"/><circle class="cls-4" cx="90.37" cy="56.72" r="2.92"/><circle class="cls-4" cx="90.37" cy="66.45" r="2.92"/><path class="cls-13" d="M256.65,50a8.11,8.11,0,0,0-1.79-5.36,6.21,6.21,0,0,0-5.07-2.16H241L237.75,81.9h10.11q6.25,0,7-8L256.65,50M267.81,84.3q4.76,3.67,4.76,11v.59a6.68,6.68,0,0,1-.08.85,8.2,8.2,0,0,0-.08,1.15L269.74,131q0,4.44,4.9,4.44l-.88,10.22h-8.49q-15.48,0-15.48-14.11a7.65,7.65,0,0,1,.17-1.85l2.53-33.15q0-5.54-4.93-5.53H236.87l-4.62,54.64H212.47l8.62-103.21H215.3l.89-9.11H252q11.32,0,17.87,5.2t6.54,14.34Q276.43,76.38,267.81,84.3Z"/><path class="cls-13" d="M557.57,77.35l-8.49,1.52-4.16,48v1.37q0,6.51,6.26,7.12l-.89,10.29h-6.95q-8.22,0-13-4.49t-4.76-12.54v-2.18l4-49.09h-7.76l.88-9.11h7.74L531.93,50h19.52l-1.62,18.21h8.62l-.88,9.11"/><path class="cls-13" d="M661.55,145.65h-9.22q-7.3,0-11.92-3.71t-4.61-10.38a5.4,5.4,0,0,1,.08-.78,4.84,4.84,0,0,0,.08-.92L639.52,86a10,10,0,0,0-1.93-6,6.28,6.28,0,0,0-5.35-2.63h-8l-5.78,68.3H598.47L603.38,86a10,10,0,0,0-1.93-6,6.28,6.28,0,0,0-5.35-2.63h-8l-5.81,68.3H562.47l5.65-68.3h-5.21l.91-9.11h69.31q12.33,0,19.33,5.1t7,14.7a8.16,8.16,0,0,1-.07,1.15,8.36,8.36,0,0,0-.07,1.15L656,128.88a7.48,7.48,0,0,0-.16,1.69,16,16,0,0,0,.15,2.36,2.32,2.32,0,0,0,.83,1.52,4.49,4.49,0,0,0,1.94.77,22.11,22.11,0,0,0,3.64.23l-.89,10.2"/><path class="cls-13" d="M696.49,77.35q-6.24,0-7,7.92l-3.27,40.67v1.73q0,8.88,8.48,8.87a11.38,11.38,0,0,0,8.17-3.48,13.06,13.06,0,0,0,4-8.4l3.88-47.31H696.49m35.25,68.3h-7q-10.41,0-15.18-6.21a21.51,21.51,0,0,1-15.32,6.21h-3.11a30.06,30.06,0,0,1-9.37-1.45,25.35,25.35,0,0,1-7.81-4,18.61,18.61,0,0,1-5.2-6.18,17,17,0,0,1-1.86-8v-2l2.81-34.15a20.45,20.45,0,0,1,2.82-8.68,24,24,0,0,1,6.26-6.85,30.42,30.42,0,0,1,8.7-4.5,32.38,32.38,0,0,1,10.18-1.6h34.38L727,129.57a2.62,2.62,0,0,1-.07.62,2.54,2.54,0,0,0-.07.61q0,5.44,5.79,5.74Z"/><path class="cls-13" d="M777.74,95.82q8.89,2.15,13.74,7.55a19.08,19.08,0,0,1,4.83,13.18v1.83l-1.49,11.43q0,5.48,5.21,5.64l-.74,10.2h-6.93c-5.63,0-10-1.14-13.11-3.41a11.25,11.25,0,0,1-4.67-9.63l.91-15.35a16.39,16.39,0,0,0-2.08-8.49,7,7,0,0,0-6.41-3.48,11.56,11.56,0,0,0-6.69,2.42L757,145.65H737.25l8.63-102.1h-5.65l.88-10.22H766.7l-5,58.82,23.52-23.91H805L777.74,95.82"/><path class="cls-13" d="M915,89.49H904.15l.75-10.08a24.58,24.58,0,0,0-6.39,3.81,27.63,27.63,0,0,0-5.21,5.63,32.1,32.1,0,0,0-3.65,6.94,27.36,27.36,0,0,0-1.72,7.53l-3.55,42.33h-20l5.81-67.21H864.6l.88-10.2h25.43l-.45,6.57q7.74-6.57,19.78-6.57h6.7L915,89.49"/><path class="cls-13" d="M968.86,123.5a20,20,0,0,1-2,9,21.51,21.51,0,0,1-5.47,7,25.32,25.32,0,0,1-8.28,4.57,32.41,32.41,0,0,1-10.44,1.62H919l.88-9.11h15.92q9.24,0,9.23-9.13a13,13,0,0,0-3.49-9l-12.64-14.08a21.57,21.57,0,0,1-6.18-15,18.7,18.7,0,0,1,2-8.67A19.83,19.83,0,0,1,930.31,74a26.08,26.08,0,0,1,8.34-4.26,34,34,0,0,1,10.13-1.47h16.36l-.9,9.11H952.5q-7.44,0-7.44,4.65a8,8,0,0,0,2,5l15,18.74q6.87,8.69,6.86,17.81"/><path class="cls-13" d="M493.24,77.4a8.38,8.38,0,0,0-8.13,7.36L483.4,101a6.5,6.5,0,0,0,6.58,7.36h4.42a8.38,8.38,0,0,0,8.14-7.36l1.7-16.19a6.5,6.5,0,0,0-6.58-7.36h-4.42M481.5,129.22a8,8,0,0,0,2.48,5.92c1.65,1.64,4.76,2.5,7.1,2.5,3,0,7.44.59,9.78-1.78s3.8-4.32,4.1-7.66h9.77a16.78,16.78,0,0,1-1.82,7.59,23.18,23.18,0,0,1-4.79,6.21,19.23,19.23,0,0,1-7.63,3.93c-2.87.74-8.58.74-11.41.74H486a29,29,0,0,1-9.26-1.44,23.28,23.28,0,0,1-7.47-4,18.76,18.76,0,0,1-5-6.23,18.27,18.27,0,0,1-1.8-8.21l2.87-35.69a21,21,0,0,1,1.38-5.85,20.6,20.6,0,0,1,1.86-4.16,23.68,23.68,0,0,1,6.09-6.87,30.29,30.29,0,0,1,8.68-4.57,31.77,31.77,0,0,1,10.38-1.68h3.12a30.23,30.23,0,0,1,9.35,1.45,24.57,24.57,0,0,1,7.71,4,19.92,19.92,0,0,1,5.2,6.25,16.68,16.68,0,0,1,1.93,7.92v2l-.57,6.62h-.12l-.18,2.1a20.75,20.75,0,0,1-2.75,8.52,23.44,23.44,0,0,1-6.11,6.86,30.11,30.11,0,0,1-8.69,4.58,32.08,32.08,0,0,1-10.38,1.67h-3.13a30.77,30.77,0,0,1-6.84-.75Z"/><path class="cls-13" d="M833.58,77.32a8.38,8.38,0,0,0-8.14,7.36l-1.71,16.2a6.5,6.5,0,0,0,6.58,7.36h4.42a8.38,8.38,0,0,0,8.14-7.36l1.71-16.2A6.5,6.5,0,0,0,838,77.32h-4.41m-11.74,51.83a8,8,0,0,0,2.47,5.92c1.65,1.63,4.76,2.5,7.11,2.5,3,0,7.43.58,9.77-1.78s3.8-4.33,4.1-7.67h9.77a16.65,16.65,0,0,1-1.82,7.59,23,23,0,0,1-4.79,6.21,19.1,19.1,0,0,1-7.63,3.93c-2.87.74-8.58.74-11.41.74h-3.06a29,29,0,0,1-9.26-1.44,23.28,23.28,0,0,1-7.47-4,18.78,18.78,0,0,1-5-6.23,18.26,18.26,0,0,1-1.8-8.2L805.73,91a21,21,0,0,1,1.37-5.85A20.85,20.85,0,0,1,809,81a23.52,23.52,0,0,1,6.09-6.86,30,30,0,0,1,8.69-4.58,31.7,31.7,0,0,1,10.37-1.67h3.12a30.23,30.23,0,0,1,9.35,1.44,24.48,24.48,0,0,1,7.71,4,19.57,19.57,0,0,1,5.2,6.25,16.63,16.63,0,0,1,1.93,7.92v2l-.57,6.61h-.12l-.18,2.1a20.6,20.6,0,0,1-2.75,8.52,23.55,23.55,0,0,1-6.1,6.86,30,30,0,0,1-8.7,4.58,31.76,31.76,0,0,1-10.38,1.67h-3.13a30.77,30.77,0,0,1-6.84-.75Z"/><path class="cls-13" d="M833.58,77.32a8.38,8.38,0,0,0-8.14,7.36l-1.71,16.2a6.5,6.5,0,0,0,6.58,7.36h4.42a8.38,8.38,0,0,0,8.14-7.36l1.71-16.2A6.5,6.5,0,0,0,838,77.32h-4.41m-11.74,51.83a8,8,0,0,0,2.47,5.92c1.65,1.63,4.76,2.5,7.11,2.5,3,0,7.43.58,9.77-1.78s3.8-4.33,4.1-7.67h9.77a16.65,16.65,0,0,1-1.82,7.59,23,23,0,0,1-4.79,6.21,19.1,19.1,0,0,1-7.63,3.93c-2.87.74-8.58.74-11.41.74h-3.06a29,29,0,0,1-9.26-1.44,23.09,23.09,0,0,1-7.47-4,18.78,18.78,0,0,1-5-6.23,18.26,18.26,0,0,1-1.8-8.2L805.73,91a21,21,0,0,1,1.37-5.85A20.85,20.85,0,0,1,809,81a23.52,23.52,0,0,1,6.09-6.86,30,30,0,0,1,8.69-4.58,31.7,31.7,0,0,1,10.37-1.67h3.12a30.23,30.23,0,0,1,9.35,1.44,24.48,24.48,0,0,1,7.71,4,19.57,19.57,0,0,1,5.2,6.25,16.63,16.63,0,0,1,1.93,7.92v2l-.57,6.61h-.12l-.18,2.1a20.6,20.6,0,0,1-2.75,8.52,23.55,23.55,0,0,1-6.1,6.86,30,30,0,0,1-8.7,4.58,31.76,31.76,0,0,1-10.38,1.67h-3.13a30.77,30.77,0,0,1-6.84-.75Z"/><path class="cls-13" d="M338.16,87.9A16.68,16.68,0,0,0,336.23,80a19.58,19.58,0,0,0-3-4.14l.1-.09a19.94,19.94,0,0,0-2.28-2.12,24.48,24.48,0,0,0-7.69-4,30.05,30.05,0,0,0-9.33-1.44H311a31.52,31.52,0,0,0-10.34,1.67A29.82,29.82,0,0,0,292,74.39a23.48,23.48,0,0,0-6.08,6.86c-.38.66-.73,1.34-1,2a20.67,20.67,0,0,0-1.75,6.59l-3,34.15v2a16.62,16.62,0,0,0,1.92,8,19.22,19.22,0,0,0,5.24,6.18,25,25,0,0,0,7.75,4,30.07,30.07,0,0,0,9.45,1.45h2.95A31.28,31.28,0,0,0,317.65,144a29.11,29.11,0,0,0,8.63-4.65,25.25,25.25,0,0,0,6.13-6.94,20,20,0,0,0,2.71-7.68h0v-.09c0-.17.05-.34.07-.5h0l1.53-17.52h0l.23-2.72v0h0l1.21-14ZM315.9,124.64c-.32,4-1.37,7-3.18,9a8,8,0,0,1-6,2.94,6.26,6.26,0,0,1-5.18-2.77,11.93,11.93,0,0,1-2.09-7.38v-1.75l1.43-17.25L302.49,89a16.3,16.3,0,0,1,3-8.4,9.11,9.11,0,0,1,1.08-1.21v0a7.18,7.18,0,0,1,5.09-2.05,6.3,6.3,0,0,1,5.16,2.54q2,2.53,2,7.47v1.73l-.47,5.68h0l-1.94,23.5h0Z"/><path class="cls-13" d="M366.12,80.28a5.62,5.62,0,0,1,4.77-2.93H392l.91-9.11H371.77a32.83,32.83,0,0,0-10.23,1.6,28.43,28.43,0,0,0-8.61,4.5,24.34,24.34,0,0,0-6.08,6.85,20.69,20.69,0,0,0-2.79,8.68l-1.57,19.25h0l-1.33,16.93h0v.25h0a17.74,17.74,0,0,0,1.81,7.62,18.77,18.77,0,0,0,5.06,6.25,23.73,23.73,0,0,0,7.61,4,29.83,29.83,0,0,0,9.44,1.45h3.11a20.94,20.94,0,0,0,8.34-1.72,24.21,24.21,0,0,0,7.14-4.64,26.3,26.3,0,0,0,4.19-5.08c-3.52-.29-7.12-.64-10.77-1.07a11.18,11.18,0,0,1-8,3.4,8.4,8.4,0,0,1-6.1-2.45,8.08,8.08,0,0,1-2.13-3.36l.66-15.51h0l2.36-28.69A13.45,13.45,0,0,1,366.12,80.28Z"/><path class="cls-13" d="M454.48,132.06l1.18-13.55v-2a19.08,19.08,0,0,0-4.83-13.18Q446,98,437.1,95.82l27.22-27.58H444.54L421,92.15l5-58.82H400.47l-.88,10.22h5.65l-6.68,79.13h0L397,141.14l-.39,4.51h19.78l.9-10.34h0l.92-10.7h0l1.46-16.9a11.56,11.56,0,0,1,6.7-2.42,7,7,0,0,1,6.4,3.48,16.39,16.39,0,0,1,2.08,8.49l-.38,6.48s-1.09,10.47,0,12.65h0a10.84,10.84,0,0,0,4.13,5.85q4.68,3.4,13.11,3.41h6.93l.74-10.2C456.73,135.37,455.1,134.23,454.48,132.06Z"/></g></g></svg>